<svg xmlns="http://www.w3.org/2000/svg" viewBox="0 0 96 96" width="96" height="96">
  <circle cx="48" cy="48" r="48" fill="#f97316" />

  <!-- ears -->
  <circle cx="20" cy="20" r="12" fill="#f97316" />
  <circle cx="76" cy="20" r="12" fill="#f97316" />
  <circle cx="20" cy="22" r="6" fill="#fff7ed" />
  <circle cx="76" cy="22" r="6" fill="#fff7ed" />

  <!-- face base -->
  <ellipse cx="48" cy="54" rx="30" ry="26" fill="#f97316" />

  <!-- muzzle patch -->
  <ellipse cx="48" cy="64" rx="16" ry="12" fill="#fff7ed" />

  <!-- stripes -->
  <path d="M22 34 L14 26" stroke="#1c1917" stroke-width="4" stroke-linecap="round" />
  <path d="M28 30 L22 20" stroke="#1c1917" stroke-width="4" stroke-linecap="round" />
  <path d="M74 34 L82 26" stroke="#1c1917" stroke-width="4" stroke-linecap="round" />
  <path d="M68 30 L74 20" stroke="#1c1917" stroke-width="4" stroke-linecap="round" />
  <path d="M20 52 L10 50" stroke="#1c1917" stroke-width="4" stroke-linecap="round" />
  <path d="M76 52 L86 50" stroke="#1c1917" stroke-width="4" stroke-linecap="round" />
  <path d="M46 30 L46 20" stroke="#1c1917" stroke-width="4" stroke-linecap="round" />

  <!-- eyes -->
  <ellipse cx="36" cy="50" rx="4" ry="5" fill="#1c1917" />
  <ellipse cx="60" cy="50" rx="4" ry="5" fill="#1c1917" />

  <!-- nose -->
  <path d="M43 60 L53 60 L48 66 Z" fill="#1c1917" />

  <!-- mouth -->
  <path d="M48 66 L48 70" stroke="#1c1917" stroke-width="2.5" stroke-linecap="round" />
  <path d="M48 70 Q40 76 34 70" stroke="#1c1917" stroke-width="2.5" fill="none" stroke-linecap="round" />
  <path d="M48 70 Q56 76 62 70" stroke="#1c1917" stroke-width="2.5" fill="none" stroke-linecap="round" />

  <!-- cheek stripes -->
  <path d="M30 66 L22 68" stroke="#1c1917" stroke-width="3" stroke-linecap="round" />
  <path d="M30 72 L23 76" stroke="#1c1917" stroke-width="3" stroke-linecap="round" />
  <path d="M66 66 L74 68" stroke="#1c1917" stroke-width="3" stroke-linecap="round" />
  <path d="M66 72 L73 76" stroke="#1c1917" stroke-width="3" stroke-linecap="round" />
</svg>
